<svg width="845" height="153" viewBox="0 0 845 153" fill="none" xmlns="http://www.w3.org/2000/svg">
<path d="M844.58 75.3409L786.034 105.159V93.5227L830.943 71.8864L830.58 72.6136V70.7955L830.943 71.5227L786.034 49.8864V38.25L844.58 68.0682V75.3409Z" fill="#F4F1DE"/>
<path d="M688.938 16V63C688.938 65.125 688.854 67.4583 688.688 70C688.521 72.5 688.354 74.8542 688.188 77.0625H688.5C689.583 75.6042 690.875 73.8958 692.375 71.9375C693.917 69.9792 695.375 68.2708 696.75 66.8125L717.875 44.0625H734.75L707.062 73.8125L736.562 113.25H719.312L697.188 82.875L688.938 89.9375V113.25H674.25V16H688.938Z" fill="#F4F1DE"/>
<path d="M638.5 114.5C631.958 114.5 626.292 113.229 621.5 110.688C616.708 108.146 613.021 104.25 610.438 99C607.854 93.75 606.562 87.0833 606.562 79C606.562 70.5833 607.979 63.7083 610.812 58.375C613.646 53.0417 617.562 49.1042 622.562 46.5625C627.604 44.0208 633.375 42.75 639.875 42.75C644 42.75 647.729 43.1667 651.062 44C654.438 44.7917 657.292 45.7708 659.625 46.9375L655.25 58.6875C652.708 57.6458 650.104 56.7708 647.438 56.0625C644.771 55.3542 642.208 55 639.75 55C635.708 55 632.333 55.8958 629.625 57.6875C626.958 59.4792 624.958 62.1458 623.625 65.6875C622.333 69.2292 621.688 73.625 621.688 78.875C621.688 83.9583 622.354 88.25 623.688 91.75C625.021 95.2083 627 97.8333 629.625 99.625C632.25 101.375 635.479 102.25 639.312 102.25C643.104 102.25 646.5 101.792 649.5 100.875C652.5 99.9583 655.333 98.7708 658 97.3125V110.062C655.375 111.562 652.562 112.667 649.562 113.375C646.562 114.125 642.875 114.5 638.5 114.5Z" fill="#F4F1DE"/>
<path d="M563.5 42.75C572.25 42.75 578.854 44.6875 583.312 48.5625C587.812 52.4375 590.062 58.4792 590.062 66.6875V113.25H579.625L576.812 103.438H576.312C574.354 105.938 572.333 108 570.25 109.625C568.167 111.25 565.75 112.458 563 113.25C560.292 114.083 556.979 114.5 553.062 114.5C548.938 114.5 545.25 113.75 542 112.25C538.75 110.708 536.188 108.375 534.312 105.25C532.438 102.125 531.5 98.1667 531.5 93.375C531.5 86.25 534.146 80.8958 539.438 77.3125C544.771 73.7292 552.812 71.75 563.562 71.375L575.562 70.9375V67.3125C575.562 62.5208 574.438 59.1042 572.188 57.0625C569.979 55.0208 566.854 54 562.812 54C559.354 54 556 54.5 552.75 55.5C549.5 56.5 546.333 57.7292 543.25 59.1875L538.5 48.8125C541.875 47.0208 545.708 45.5625 550 44.4375C554.333 43.3125 558.833 42.75 563.5 42.75ZM575.5 80.1875L566.562 80.5C559.229 80.75 554.083 82 551.125 84.25C548.167 86.5 546.688 89.5833 546.688 93.5C546.688 96.9167 547.708 99.4167 549.75 101C551.792 102.542 554.479 103.312 557.812 103.312C562.896 103.312 567.104 101.875 570.438 99C573.812 96.0833 575.5 91.8125 575.5 86.1875V80.1875Z" fill="#F4F1DE"/>
<path d="M511.5 102.625C513.417 102.625 515.312 102.458 517.188 102.125C519.062 101.75 520.771 101.312 522.312 100.812V111.938C520.688 112.646 518.583 113.25 516 113.75C513.417 114.25 510.729 114.5 507.938 114.5C504.021 114.5 500.5 113.854 497.375 112.562C494.25 111.229 491.771 108.958 489.938 105.75C488.104 102.542 487.188 98.1042 487.188 92.4375V55.25H477.75V48.6875L487.875 43.5L492.688 28.6875H501.938V44.0625H521.75V55.25H501.938V92.25C501.938 95.75 502.812 98.3542 504.562 100.062C506.312 101.771 508.625 102.625 511.5 102.625Z" fill="#F4F1DE"/>
<path d="M469.625 88.375C469.625 93.7917 468.292 98.4583 465.625 102.375C463 106.292 459.208 109.292 454.25 111.375C449.333 113.458 443.458 114.5 436.625 114.5C433.292 114.5 430.104 114.312 427.062 113.938C424.021 113.562 421.146 113.021 418.438 112.312C415.771 111.562 413.333 110.667 411.125 109.625V95.5C414.833 97.125 418.979 98.6042 423.562 99.9375C428.146 101.229 432.812 101.875 437.562 101.875C441.438 101.875 444.646 101.375 447.188 100.375C449.771 99.3333 451.688 97.875 452.938 96C454.188 94.0833 454.812 91.8542 454.812 89.3125C454.812 86.6042 454.083 84.3125 452.625 82.4375C451.167 80.5625 448.958 78.8542 446 77.3125C443.083 75.7292 439.417 74.0417 435 72.25C432 71.0417 429.125 69.6667 426.375 68.125C423.667 66.5833 421.25 64.7708 419.125 62.6875C417 60.6042 415.312 58.1458 414.062 55.3125C412.854 52.4375 412.25 49.0625 412.25 45.1875C412.25 40.0208 413.479 35.6042 415.938 31.9375C418.438 28.2708 421.938 25.4583 426.438 23.5C430.979 21.5417 436.271 20.5625 442.312 20.5625C447.104 20.5625 451.604 21.0625 455.812 22.0625C460.062 23.0625 464.229 24.4792 468.312 26.3125L463.562 38.375C459.812 36.8333 456.167 35.6042 452.625 34.6875C449.125 33.7708 445.542 33.3125 441.875 33.3125C438.708 33.3125 436.021 33.7917 433.812 34.75C431.604 35.7083 429.917 37.0625 428.75 38.8125C427.625 40.5208 427.062 42.5625 427.062 44.9375C427.062 47.6042 427.708 49.8542 429 51.6875C430.333 53.4792 432.375 55.125 435.125 56.625C437.917 58.125 441.5 59.7917 445.875 61.625C450.917 63.7083 455.188 65.8958 458.688 68.1875C462.229 70.4792 464.938 73.2292 466.812 76.4375C468.688 79.6042 469.625 83.5833 469.625 88.375Z" fill="#F4F1DE"/>
<path d="M346.188 45.3125H352.875L369.375 88.4375C370.375 90.9792 371.25 93.3333 372 95.5C372.792 97.625 373.479 99.5833 374.062 101.375C374.646 103.125 375.125 104.729 375.5 106.188H375.875C376.5 104.271 377.333 101.812 378.375 98.8125C379.417 95.7708 380.604 92.3958 381.938 88.6875L398.25 45.3125H405L374 126C372.5 129.917 370.854 133.229 369.062 135.938C367.271 138.688 365.167 140.75 362.75 142.125C360.333 143.542 357.417 144.25 354 144.25C352.458 144.25 351.062 144.125 349.812 143.875C348.562 143.667 347.354 143.375 346.188 143V137.562C347.271 137.896 348.375 138.167 349.5 138.375C350.667 138.625 351.938 138.75 353.312 138.75C355.688 138.75 357.729 138.25 359.438 137.25C361.188 136.292 362.75 134.792 364.125 132.75C365.5 130.708 366.792 128.104 368 124.938L372.625 112.875L346.188 45.3125Z" fill="#F4F1DE"/>
<path d="M334.562 44.125C336.354 44.125 338.042 44.2292 339.625 44.4375C341.208 44.6458 342.688 44.9375 344.062 45.3125L343.062 51.125C341.688 50.75 340.292 50.4792 338.875 50.3125C337.458 50.1042 335.938 50 334.312 50C331.104 50 328.229 50.6042 325.688 51.8125C323.188 53.0208 321.062 54.75 319.312 57C317.562 59.25 316.229 61.9583 315.312 65.125C314.396 68.2917 313.938 71.8333 313.938 75.75V113.25H307.562V45.3125H313L313.625 58.125H314C315.042 55.5 316.5 53.1458 318.375 51.0625C320.292 48.9375 322.604 47.25 325.312 46C328.021 44.75 331.104 44.125 334.562 44.125Z" fill="#F4F1DE"/>
<path d="M288.75 79.1875C288.75 84.4375 288.104 89.2292 286.812 93.5625C285.521 97.8542 283.604 101.562 281.062 104.688C278.521 107.812 275.354 110.229 271.562 111.938C267.812 113.646 263.438 114.5 258.438 114.5C253.688 114.5 249.458 113.667 245.75 112C242.042 110.292 238.896 107.875 236.312 104.75C233.771 101.625 231.833 97.9167 230.5 93.625C229.167 89.2917 228.5 84.4792 228.5 79.1875C228.5 71.8958 229.708 65.625 232.125 60.375C234.583 55.0833 238.083 51.0417 242.625 48.25C247.208 45.4167 252.688 44 259.062 44C265.646 44 271.125 45.5 275.5 48.5C279.917 51.4583 283.229 55.5833 285.438 60.875C287.646 66.1667 288.75 72.2708 288.75 79.1875ZM235 79.1875C235 85.1458 235.854 90.3542 237.562 94.8125C239.271 99.2708 241.854 102.75 245.312 105.25C248.812 107.75 253.229 109 258.562 109C264.021 109 268.5 107.75 272 105.25C275.5 102.75 278.083 99.25 279.75 94.75C281.417 90.25 282.25 85.0625 282.25 79.1875C282.25 73.4792 281.458 68.3958 279.875 63.9375C278.292 59.4792 275.792 55.9792 272.375 53.4375C268.958 50.8542 264.5 49.5625 259 49.5625C251.125 49.5625 245.146 52.1875 241.062 57.4375C237.021 62.6875 235 69.9375 235 79.1875Z" fill="#F4F1DE"/>
<path d="M207.875 109.062C209.833 109.062 211.646 108.917 213.312 108.625C215.021 108.333 216.521 107.958 217.812 107.5V112.75C216.479 113.208 214.917 113.604 213.125 113.938C211.333 114.312 209.354 114.5 207.188 114.5C203.354 114.5 200.167 113.792 197.625 112.375C195.083 110.917 193.167 108.729 191.875 105.812C190.583 102.854 189.938 99.1042 189.938 94.5625V50.5625H179.812V46.8125L189.875 44.875L192.062 28.875H196.25V45.3125H217.438V50.5625H196.25V94.1875C196.25 99.0625 197.146 102.771 198.938 105.312C200.771 107.812 203.75 109.062 207.875 109.062Z" fill="#F4F1DE"/>
<path d="M171.562 89.6875C171.562 95.1458 170.188 99.7292 167.438 103.438C164.688 107.104 160.958 109.875 156.25 111.75C151.542 113.583 146.208 114.5 140.25 114.5C136.542 114.5 133.167 114.312 130.125 113.938C127.125 113.604 124.396 113.146 121.938 112.562C119.521 111.979 117.312 111.312 115.312 110.562V104.125C118.562 105.375 122.312 106.479 126.562 107.438C130.854 108.354 135.521 108.812 140.562 108.812C145.312 108.812 149.521 108.125 153.188 106.75C156.896 105.375 159.812 103.292 161.938 100.5C164.062 97.7083 165.125 94.1875 165.125 89.9375C165.125 86.1875 164.229 83.125 162.438 80.75C160.688 78.3333 158.042 76.2708 154.5 74.5625C150.958 72.8125 146.5 71.0417 141.125 69.25C137.375 67.9583 133.958 66.6042 130.875 65.1875C127.833 63.7292 125.229 62.0625 123.062 60.1875C120.896 58.2708 119.229 55.9792 118.062 53.3125C116.938 50.6042 116.375 47.4167 116.375 43.75C116.375 38.7083 117.646 34.4792 120.188 31.0625C122.771 27.6042 126.25 25 130.625 23.25C135.042 21.4583 140 20.5625 145.5 20.5625C149.875 20.5625 154.021 20.9792 157.938 21.8125C161.896 22.6042 165.708 23.8125 169.375 25.4375L167.125 31C163.458 29.4167 159.792 28.25 156.125 27.5C152.458 26.75 148.833 26.375 145.25 26.375C140.958 26.375 137.125 27.0208 133.75 28.3125C130.417 29.5625 127.771 31.4583 125.812 34C123.854 36.5417 122.875 39.75 122.875 43.625C122.875 47.625 123.771 50.8542 125.562 53.3125C127.396 55.7708 129.979 57.8125 133.312 59.4375C136.688 61.0625 140.667 62.6458 145.25 64.1875C150.667 66.0208 155.333 67.9583 159.25 70C163.167 72 166.188 74.5417 168.312 77.625C170.479 80.7083 171.562 84.7292 171.562 89.6875Z" fill="#F4F1DE"/>
<path d="M0.909058 75.3409V68.0682L59.4545 38.25V49.8864L14.5454 71.5227L14.9091 70.7955V72.6136L14.5454 71.8864L59.4545 93.5227V105.159L0.909058 75.3409Z" fill="#F4F1DE"/>
</svg>
