<svg width="845" height="129" viewBox="0 0 845 129" fill="none" xmlns="http://www.w3.org/2000/svg">
<path d="M844.58 59.3409L786.034 89.1591V77.5227L830.943 55.8864L830.58 56.6136V54.7955L830.943 55.5227L786.034 33.8864V22.25L844.58 52.0682V59.3409Z" fill="#3D405B"/>
<path d="M688.938 0V47C688.938 49.125 688.854 51.4583 688.688 54C688.521 56.5 688.354 58.8542 688.188 61.0625H688.5C689.583 59.6042 690.875 57.8958 692.375 55.9375C693.917 53.9792 695.375 52.2708 696.75 50.8125L717.875 28.0625H734.75L707.062 57.8125L736.562 97.25H719.312L697.188 66.875L688.938 73.9375V97.25H674.25V0H688.938Z" fill="#3D405B"/>
<path d="M638.5 98.5C631.958 98.5 626.292 97.2292 621.5 94.6875C616.708 92.1458 613.021 88.25 610.438 83C607.854 77.75 606.562 71.0833 606.562 63C606.562 54.5833 607.979 47.7083 610.812 42.375C613.646 37.0417 617.562 33.1042 622.562 30.5625C627.604 28.0208 633.375 26.75 639.875 26.75C644 26.75 647.729 27.1667 651.062 28C654.438 28.7917 657.292 29.7708 659.625 30.9375L655.25 42.6875C652.708 41.6458 650.104 40.7708 647.438 40.0625C644.771 39.3542 642.208 39 639.75 39C635.708 39 632.333 39.8958 629.625 41.6875C626.958 43.4792 624.958 46.1458 623.625 49.6875C622.333 53.2292 621.688 57.625 621.688 62.875C621.688 67.9583 622.354 72.25 623.688 75.75C625.021 79.2083 627 81.8333 629.625 83.625C632.25 85.375 635.479 86.25 639.312 86.25C643.104 86.25 646.5 85.7917 649.5 84.875C652.5 83.9583 655.333 82.7708 658 81.3125V94.0625C655.375 95.5625 652.562 96.6667 649.562 97.375C646.562 98.125 642.875 98.5 638.5 98.5Z" fill="#3D405B"/>
<path d="M563.5 26.75C572.25 26.75 578.854 28.6875 583.312 32.5625C587.812 36.4375 590.062 42.4792 590.062 50.6875V97.25H579.625L576.812 87.4375H576.312C574.354 89.9375 572.333 92 570.25 93.625C568.167 95.25 565.75 96.4583 563 97.25C560.292 98.0833 556.979 98.5 553.062 98.5C548.938 98.5 545.25 97.75 542 96.25C538.75 94.7083 536.188 92.375 534.312 89.25C532.438 86.125 531.5 82.1667 531.5 77.375C531.5 70.25 534.146 64.8958 539.438 61.3125C544.771 57.7292 552.812 55.75 563.562 55.375L575.562 54.9375V51.3125C575.562 46.5208 574.438 43.1042 572.188 41.0625C569.979 39.0208 566.854 38 562.812 38C559.354 38 556 38.5 552.75 39.5C549.5 40.5 546.333 41.7292 543.25 43.1875L538.5 32.8125C541.875 31.0208 545.708 29.5625 550 28.4375C554.333 27.3125 558.833 26.75 563.5 26.75ZM575.5 64.1875L566.562 64.5C559.229 64.75 554.083 66 551.125 68.25C548.167 70.5 546.688 73.5833 546.688 77.5C546.688 80.9167 547.708 83.4167 549.75 85C551.792 86.5417 554.479 87.3125 557.812 87.3125C562.896 87.3125 567.104 85.875 570.438 83C573.812 80.0833 575.5 75.8125 575.5 70.1875V64.1875Z" fill="#3D405B"/>
<path d="M511.5 86.625C513.417 86.625 515.312 86.4583 517.188 86.125C519.062 85.75 520.771 85.3125 522.312 84.8125V95.9375C520.688 96.6458 518.583 97.25 516 97.75C513.417 98.25 510.729 98.5 507.938 98.5C504.021 98.5 500.5 97.8542 497.375 96.5625C494.25 95.2292 491.771 92.9583 489.938 89.75C488.104 86.5417 487.188 82.1042 487.188 76.4375V39.25H477.75V32.6875L487.875 27.5L492.688 12.6875H501.938V28.0625H521.75V39.25H501.938V76.25C501.938 79.75 502.812 82.3542 504.562 84.0625C506.312 85.7708 508.625 86.625 511.5 86.625Z" fill="#3D405B"/>
<path d="M469.625 72.375C469.625 77.7917 468.292 82.4583 465.625 86.375C463 90.2917 459.208 93.2917 454.25 95.375C449.333 97.4583 443.458 98.5 436.625 98.5C433.292 98.5 430.104 98.3125 427.062 97.9375C424.021 97.5625 421.146 97.0208 418.438 96.3125C415.771 95.5625 413.333 94.6667 411.125 93.625V79.5C414.833 81.125 418.979 82.6042 423.562 83.9375C428.146 85.2292 432.812 85.875 437.562 85.875C441.438 85.875 444.646 85.375 447.188 84.375C449.771 83.3333 451.688 81.875 452.938 80C454.188 78.0833 454.812 75.8542 454.812 73.3125C454.812 70.6042 454.083 68.3125 452.625 66.4375C451.167 64.5625 448.958 62.8542 446 61.3125C443.083 59.7292 439.417 58.0417 435 56.25C432 55.0417 429.125 53.6667 426.375 52.125C423.667 50.5833 421.25 48.7708 419.125 46.6875C417 44.6042 415.312 42.1458 414.062 39.3125C412.854 36.4375 412.25 33.0625 412.25 29.1875C412.25 24.0208 413.479 19.6042 415.938 15.9375C418.438 12.2708 421.938 9.45833 426.438 7.5C430.979 5.54167 436.271 4.5625 442.312 4.5625C447.104 4.5625 451.604 5.0625 455.812 6.0625C460.062 7.0625 464.229 8.47917 468.312 10.3125L463.562 22.375C459.812 20.8333 456.167 19.6042 452.625 18.6875C449.125 17.7708 445.542 17.3125 441.875 17.3125C438.708 17.3125 436.021 17.7917 433.812 18.75C431.604 19.7083 429.917 21.0625 428.75 22.8125C427.625 24.5208 427.062 26.5625 427.062 28.9375C427.062 31.6042 427.708 33.8542 429 35.6875C430.333 37.4792 432.375 39.125 435.125 40.625C437.917 42.125 441.5 43.7917 445.875 45.625C450.917 47.7083 455.188 49.8958 458.688 52.1875C462.229 54.4792 464.938 57.2292 466.812 60.4375C468.688 63.6042 469.625 67.5833 469.625 72.375Z" fill="#3D405B"/>
<path d="M346.188 29.3125H352.875L369.375 72.4375C370.375 74.9792 371.25 77.3333 372 79.5C372.792 81.625 373.479 83.5833 374.062 85.375C374.646 87.125 375.125 88.7292 375.5 90.1875H375.875C376.5 88.2708 377.333 85.8125 378.375 82.8125C379.417 79.7708 380.604 76.3958 381.938 72.6875L398.25 29.3125H405L374 110C372.5 113.917 370.854 117.229 369.062 119.938C367.271 122.688 365.167 124.75 362.75 126.125C360.333 127.542 357.417 128.25 354 128.25C352.458 128.25 351.062 128.125 349.812 127.875C348.562 127.667 347.354 127.375 346.188 127V121.562C347.271 121.896 348.375 122.167 349.5 122.375C350.667 122.625 351.938 122.75 353.312 122.75C355.688 122.75 357.729 122.25 359.438 121.25C361.188 120.292 362.75 118.792 364.125 116.75C365.5 114.708 366.792 112.104 368 108.938L372.625 96.875L346.188 29.3125Z" fill="#3D405B"/>
<path d="M334.562 28.125C336.354 28.125 338.042 28.2292 339.625 28.4375C341.208 28.6458 342.688 28.9375 344.062 29.3125L343.062 35.125C341.688 34.75 340.292 34.4792 338.875 34.3125C337.458 34.1042 335.938 34 334.312 34C331.104 34 328.229 34.6042 325.688 35.8125C323.188 37.0208 321.062 38.75 319.312 41C317.562 43.25 316.229 45.9583 315.312 49.125C314.396 52.2917 313.938 55.8333 313.938 59.75V97.25H307.562V29.3125H313L313.625 42.125H314C315.042 39.5 316.5 37.1458 318.375 35.0625C320.292 32.9375 322.604 31.25 325.312 30C328.021 28.75 331.104 28.125 334.562 28.125Z" fill="#3D405B"/>
<path d="M288.75 63.1875C288.75 68.4375 288.104 73.2292 286.812 77.5625C285.521 81.8542 283.604 85.5625 281.062 88.6875C278.521 91.8125 275.354 94.2292 271.562 95.9375C267.812 97.6458 263.438 98.5 258.438 98.5C253.688 98.5 249.458 97.6667 245.75 96C242.042 94.2917 238.896 91.875 236.312 88.75C233.771 85.625 231.833 81.9167 230.5 77.625C229.167 73.2917 228.5 68.4792 228.5 63.1875C228.5 55.8958 229.708 49.625 232.125 44.375C234.583 39.0833 238.083 35.0417 242.625 32.25C247.208 29.4167 252.688 28 259.062 28C265.646 28 271.125 29.5 275.5 32.5C279.917 35.4583 283.229 39.5833 285.438 44.875C287.646 50.1667 288.75 56.2708 288.75 63.1875ZM235 63.1875C235 69.1458 235.854 74.3542 237.562 78.8125C239.271 83.2708 241.854 86.75 245.312 89.25C248.812 91.75 253.229 93 258.562 93C264.021 93 268.5 91.75 272 89.25C275.5 86.75 278.083 83.25 279.75 78.75C281.417 74.25 282.25 69.0625 282.25 63.1875C282.25 57.4792 281.458 52.3958 279.875 47.9375C278.292 43.4792 275.792 39.9792 272.375 37.4375C268.958 34.8542 264.5 33.5625 259 33.5625C251.125 33.5625 245.146 36.1875 241.062 41.4375C237.021 46.6875 235 53.9375 235 63.1875Z" fill="#3D405B"/>
<path d="M207.875 93.0625C209.833 93.0625 211.646 92.9167 213.312 92.625C215.021 92.3333 216.521 91.9583 217.812 91.5V96.75C216.479 97.2083 214.917 97.6042 213.125 97.9375C211.333 98.3125 209.354 98.5 207.188 98.5C203.354 98.5 200.167 97.7917 197.625 96.375C195.083 94.9167 193.167 92.7292 191.875 89.8125C190.583 86.8542 189.938 83.1042 189.938 78.5625V34.5625H179.812V30.8125L189.875 28.875L192.062 12.875H196.25V29.3125H217.438V34.5625H196.25V78.1875C196.25 83.0625 197.146 86.7708 198.938 89.3125C200.771 91.8125 203.75 93.0625 207.875 93.0625Z" fill="#3D405B"/>
<path d="M171.562 73.6875C171.562 79.1458 170.188 83.7292 167.438 87.4375C164.688 91.1042 160.958 93.875 156.25 95.75C151.542 97.5833 146.208 98.5 140.25 98.5C136.542 98.5 133.167 98.3125 130.125 97.9375C127.125 97.6042 124.396 97.1458 121.938 96.5625C119.521 95.9792 117.312 95.3125 115.312 94.5625V88.125C118.562 89.375 122.312 90.4792 126.562 91.4375C130.854 92.3542 135.521 92.8125 140.562 92.8125C145.312 92.8125 149.521 92.125 153.188 90.75C156.896 89.375 159.812 87.2917 161.938 84.5C164.062 81.7083 165.125 78.1875 165.125 73.9375C165.125 70.1875 164.229 67.125 162.438 64.75C160.688 62.3333 158.042 60.2708 154.5 58.5625C150.958 56.8125 146.5 55.0417 141.125 53.25C137.375 51.9583 133.958 50.6042 130.875 49.1875C127.833 47.7292 125.229 46.0625 123.062 44.1875C120.896 42.2708 119.229 39.9792 118.062 37.3125C116.938 34.6042 116.375 31.4167 116.375 27.75C116.375 22.7083 117.646 18.4792 120.188 15.0625C122.771 11.6042 126.25 9 130.625 7.25C135.042 5.45833 140 4.5625 145.5 4.5625C149.875 4.5625 154.021 4.97917 157.938 5.8125C161.896 6.60417 165.708 7.8125 169.375 9.4375L167.125 15C163.458 13.4167 159.792 12.25 156.125 11.5C152.458 10.75 148.833 10.375 145.25 10.375C140.958 10.375 137.125 11.0208 133.75 12.3125C130.417 13.5625 127.771 15.4583 125.812 18C123.854 20.5417 122.875 23.75 122.875 27.625C122.875 31.625 123.771 34.8542 125.562 37.3125C127.396 39.7708 129.979 41.8125 133.312 43.4375C136.688 45.0625 140.667 46.6458 145.25 48.1875C150.667 50.0208 155.333 51.9583 159.25 54C163.167 56 166.188 58.5417 168.312 61.625C170.479 64.7083 171.562 68.7292 171.562 73.6875Z" fill="#3D405B"/>
<path d="M0.909058 59.3409V52.0682L59.4545 22.25V33.8864L14.5454 55.5227L14.9091 54.7955V56.6136L14.5454 55.8864L59.4545 77.5227V89.1591L0.909058 59.3409Z" fill="#3D405B"/>
</svg>
